<?xml version="1.0" encoding="utf-8"?>
<!-- Generator: Adobe Illustrator 23.1.0, SVG Export Plug-In . SVG Version: 6.00 Build 0)  -->
<svg version="1.1" id="Layer_1" xmlns="http://www.w3.org/2000/svg" xmlns:xlink="http://www.w3.org/1999/xlink" x="0px" y="0px"
	 viewBox="0 0 800 800" style="enable-background:new 0 0 800 800;" xml:space="preserve">
<style type="text/css">
	.st0{fill-rule:evenodd;clip-rule:evenodd;fill:#4E4E4E;}
</style>
<title>behance [#163]</title>
<desc>Created with Sketch.</desc>
<g id="Page-1">
	<g id="Dribbble-Light-Preview" transform="translate(-100.000000, -7482.000000)">
		<g id="icons" transform="translate(56.000000, 160.000000)">
			<path class="st0" d="M563.2,7546.7h203.5v-58.3H563.2V7546.7z M663.6,7663.7c-45.4,0-79.9,28.1-83.2,80.1h162.9
				C732.2,7682.2,704.8,7663.7,663.6,7663.7L663.6,7663.7z M669.9,7904.8c41.9,0,72.7-26.5,79-48.8H837
				c-25.2,80.7-77.2,126-170.7,126c-119.2,0-186.2-84.8-186.2-197.3c0-265,382.4-274.5,363.2,24.7h-263
				C582.9,7870.2,608,7904.8,669.9,7904.8L669.9,7904.8z M273.2,7893.1c48.1,0,81.8-18.5,81.8-68.5c0-51.8-29.8-74.3-79.7-74.3
				H154.7V7893L273.2,7893.1L273.2,7893.1z M266.8,7672.5c40,0,67.7-18.6,67.7-61.9c0-45.6-32.2-59.7-76.1-59.7H154.7v121.6H266.8
				L266.8,7672.5z M281,7462c94.8,0,160.8,31.3,160.8,128.9c0,48.3-19.4,84.3-68.4,108.5c62.7,18.6,92.4,67.5,92.4,131.8
				c0,102-80.9,150.7-177.7,150.7H44v-520h237V7462z"/>
		</g>
	</g>
</g>
</svg>
