<svg width="675" height="153" viewBox="0 0 675 153" fill="none" xmlns="http://www.w3.org/2000/svg">
<g clip-path="url(#clip0_21_205)">
<path d="M617.136 153.08C611.598 153.08 606.532 152.02 601.937 149.899C597.342 147.778 593.69 144.833 590.98 141.063C588.27 137.175 586.915 132.58 586.915 127.278C586.915 120.091 589.389 114.377 594.338 110.135C599.404 105.894 606.296 102.713 615.015 100.592C623.733 98.4713 633.748 96.9986 645.058 96.1739C645.058 89.9295 644.057 85.5114 642.054 82.9194C640.051 80.3274 636.163 79.0314 630.39 79.0314C626.738 79.0314 623.498 79.915 620.67 81.6823C617.96 83.3317 616.134 85.9237 615.192 89.4583L592.571 81.3288C595.516 75.4379 600.405 70.5485 607.239 66.6605C614.19 62.7725 622.673 60.8285 632.688 60.8285C645.176 60.8285 654.778 63.5972 661.494 69.1347C668.21 74.6721 671.567 84.0975 671.567 97.411V116.674C671.567 120.444 671.685 124.509 671.921 128.868C672.157 133.228 672.51 137.351 672.981 141.239C673.453 145.127 673.983 148.367 674.572 150.959H649.653L646.472 140.356C643.173 144.95 638.991 148.249 633.925 150.252C628.976 152.137 623.38 153.08 617.136 153.08ZM627.032 134.7C632.334 134.7 636.752 133.287 640.287 130.459C643.821 127.631 645.589 122.212 645.589 114.2V112.079C636.281 112.904 628.8 114.2 623.144 115.967C617.489 117.617 614.661 120.739 614.661 125.334C614.661 128.161 615.84 130.459 618.196 132.226C620.552 133.876 623.498 134.7 627.032 134.7Z" fill="#E8F0F5"/>
<path d="M490.375 150.959V63.3027H513.88L517.238 74.9667C519.241 71.6677 522.54 68.4867 527.135 65.4234C531.847 62.3601 537.562 60.8285 544.277 60.8285C555.588 60.8285 563.305 64.0096 567.428 70.3718C571.67 76.6161 573.791 85.6881 573.791 97.5877V150.959H546.928V104.303C546.928 100.18 546.692 96.4095 546.221 92.9928C545.75 89.5761 544.572 86.8663 542.687 84.8634C540.919 82.7426 537.856 81.6823 533.497 81.6823C527.842 81.6823 523.718 83.7441 521.126 87.8677C518.534 91.8735 517.238 97.8822 517.238 105.894V150.959H490.375Z" fill="#E8F0F5"/>
<path d="M446.648 150.959V83.8028H430.036V63.3025H473.687V150.959H446.648Z" fill="#E8F0F5"/>
<path d="M412.874 150.959C405.687 150.959 399.973 150.37 395.731 149.192C391.49 147.896 388.427 145.481 386.542 141.946C384.774 138.294 383.891 133.051 383.891 126.217V32.9056H410.753V119.148C410.753 123.272 411.578 125.982 413.227 127.278C414.877 128.456 417.94 129.045 422.417 129.045H430.016V150.959H412.874Z" fill="#E8F0F5"/>
<path d="M311.833 153.08C306.296 153.08 301.23 152.02 296.635 149.899C292.04 147.778 288.387 144.833 285.678 141.063C282.968 137.175 281.613 132.58 281.613 127.278C281.613 120.091 284.087 114.377 289.035 110.135C294.102 105.894 300.994 102.713 309.713 100.592C318.431 98.4713 328.446 96.9986 339.756 96.1739C339.756 89.9295 338.755 85.5114 336.752 82.9194C334.749 80.3274 330.861 79.0314 325.088 79.0314C321.435 79.0314 318.195 79.915 315.368 81.6823C312.658 83.3317 310.832 85.9237 309.889 89.4583L287.268 81.3288C290.214 75.4379 295.103 70.5485 301.936 66.6605C308.888 62.7725 317.371 60.8285 327.385 60.8285C339.874 60.8285 349.476 63.5972 356.192 69.1347C362.907 74.6721 366.265 84.0975 366.265 97.411V116.674C366.265 120.444 366.383 124.509 366.619 128.868C366.854 133.228 367.208 137.351 367.679 141.239C368.15 145.127 368.68 148.367 369.269 150.959H344.351L341.17 140.356C337.871 144.95 333.688 148.249 328.622 150.252C323.674 152.137 318.078 153.08 311.833 153.08ZM321.73 134.7C327.032 134.7 331.45 133.287 334.984 130.459C338.519 127.631 340.286 122.212 340.286 114.2V112.079C330.979 112.904 323.497 114.2 317.842 115.967C312.187 117.617 309.359 120.739 309.359 125.334C309.359 128.161 310.537 130.459 312.894 132.226C315.25 133.876 318.195 134.7 321.73 134.7Z" fill="#E8F0F5"/>
<path d="M256.181 150.959C248.994 150.959 243.28 150.37 239.038 149.192C234.797 147.896 231.734 145.481 229.848 141.946C228.081 138.294 227.198 133.051 227.198 126.217V83.8029H212.706V63.3026H227.198V41.3884H254.06V63.3026H273.147V83.8029H254.06V119.148C254.06 123.272 254.826 125.982 256.357 127.278C258.007 128.456 261.011 129.045 265.371 129.045H273.147V150.959H256.181Z" fill="#E8F0F5"/>
<path d="M147.187 153.08C141.65 153.08 136.584 152.02 131.989 149.899C127.394 147.778 123.742 144.833 121.032 141.063C118.322 137.175 116.967 132.58 116.967 127.278C116.967 120.091 119.441 114.377 124.39 110.135C129.456 105.894 136.348 102.713 145.067 100.592C153.785 98.4713 163.8 96.9986 175.11 96.1739C175.11 89.9295 174.109 85.5114 172.106 82.9194C170.103 80.3274 166.215 79.0314 160.442 79.0314C156.789 79.0314 153.549 79.915 150.722 81.6823C148.012 83.3317 146.186 85.9237 145.243 89.4583L122.622 81.3288C125.568 75.4379 130.457 70.5485 137.291 66.6605C144.242 62.7725 152.725 60.8285 162.739 60.8285C175.228 60.8285 184.83 63.5972 191.546 69.1347C198.261 74.6721 201.619 84.0975 201.619 97.411V116.674C201.619 120.444 201.737 124.509 201.973 128.868C202.208 133.228 202.562 137.351 203.033 141.239C203.504 145.127 204.034 148.367 204.624 150.959H179.705L176.524 140.356C173.225 144.95 169.043 148.249 163.976 150.252C159.028 152.137 153.432 153.08 147.187 153.08ZM157.084 134.7C162.386 134.7 166.804 133.287 170.339 130.459C173.873 127.631 175.64 122.212 175.64 114.2V112.079C166.333 112.904 158.851 114.2 153.196 115.967C147.541 117.617 144.713 120.739 144.713 125.334C144.713 128.161 145.891 130.459 148.248 132.226C150.604 133.876 153.55 134.7 157.084 134.7Z" fill="#E8F0F5"/>
<path d="M59.0268 153.08C46.7737 153.08 36.229 150.606 27.3927 145.657C18.5563 140.709 11.7818 133.64 7.06907 124.45C2.35636 115.26 0 104.421 0 91.9323C0 79.4436 2.41527 68.6632 7.2458 59.5913C12.1942 50.4015 19.1454 43.3324 28.0996 38.384C37.0537 33.3179 47.5984 30.7848 59.7337 30.7848C70.9264 30.7848 80.6464 33.259 88.8936 38.2073C97.2587 43.1557 103.68 49.8124 108.157 58.1775L83.4151 67.1905C80.8231 62.36 77.2885 58.9433 72.8115 56.9404C68.3344 54.8196 63.6806 53.7593 58.85 53.7593C53.4304 53.7593 48.4821 55.2909 44.005 58.3542C39.5279 61.2996 35.9934 65.6589 33.4014 71.432C30.8094 77.0872 29.5134 83.9207 29.5134 91.9323C29.5134 104.303 32.341 113.787 37.9963 120.385C43.7694 126.865 50.8384 130.105 59.2035 130.105C63.6806 130.105 68.2755 129.163 72.9882 127.278C77.8187 125.393 81.5889 121.917 84.2987 116.851L108.864 125.864C104.151 134.229 97.4354 140.886 88.7169 145.834C80.1162 150.665 70.2195 153.08 59.0268 153.08Z" fill="#E8F0F5"/>
<g filter="url(#filter0_d_21_205)">
<circle cx="459" cy="31" r="15" fill="#319BFF"/>
</g>
</g>
<defs>
<filter id="filter0_d_21_205" x="426" y="-2" width="66" height="66" filterUnits="userSpaceOnUse" color-interpolation-filters="sRGB">
<feFlood flood-opacity="0" result="BackgroundImageFix"/>
<feColorMatrix in="SourceAlpha" type="matrix" values="0 0 0 0 0 0 0 0 0 0 0 0 0 0 0 0 0 0 127 0" result="hardAlpha"/>
<feMorphology radius="6" operator="dilate" in="SourceAlpha" result="effect1_dropShadow_21_205"/>
<feOffset/>
<feGaussianBlur stdDeviation="6"/>
<feComposite in2="hardAlpha" operator="out"/>
<feColorMatrix type="matrix" values="0 0 0 0 0.290196 0 0 0 0 0.337255 0 0 0 0 0.886275 0 0 0 0.5 0"/>
<feBlend mode="normal" in2="BackgroundImageFix" result="effect1_dropShadow_21_205"/>
<feBlend mode="normal" in="SourceGraphic" in2="effect1_dropShadow_21_205" result="shape"/>
</filter>
<clipPath id="clip0_21_205">
<rect width="675" height="153" fill="white"/>
</clipPath>
</defs>
</svg>
